PathFileType	4	(X/Y/Z)	C:\Users\°ÂÌØÂü\Desktop\20210112\bx_y_10_901-Unnamed.trc
DataRate	CameraRate	NumFrames	NumMarkers	Units	OrigDataRate	OrigDataStartFrame	OrigNumFrames
50.00	50.00	       4	0	mm	50.00	133	       530
Frame#	Time	
		

133	2.640	-106.94793	128.87746	1009.57892	-785.74457	210.99519	795.49994	-862.62878	-70.86692	702.41644	-908.08258	80.87952	1105.23486	-773.77197	-14.95465	798.28186	-854.28381	278.67273	856.77893	-883.43304	282.14606	726.89459	-338.48462	267.96912	904.81958	-850.56097	242.62228	558.46991	-868.59674	254.67081	479.25089	-518.17285	-72.50430	143.28262	-730.79095	70.01712	222.06459	-605.25421	20.88962	166.86188	-678.22150	52.37336	163.27298	-722.61804	157.47733	222.34291	-777.72778	226.34503	200.13155	-597.54614	221.38390	173.28810	-882.47290	296.27444	144.85796	-561.65796	256.84659	164.62901	-666.00208	299.05606	159.35176	-627.70703	306.04529	161.38280	-528.22705	303.83755	146.22310	-809.95935	141.03513	563.61322	-768.19739	11.38950	524.19788	-773.40808	-14.40396	201.53490	-798.58478	47.43221	172.75746	-800.40808	176.54372	180.47632	-850.58099	-46.58588	469.44489	-563.12268	-35.42250	163.69481	-663.37720	-67.65748	161.43083	-876.03320	-78.59757	141.50241	-851.29346	-85.10865	856.70392				-827.92676	-34.89107	556.40228	-677.88147	175.81921	162.05511	-622.26215	-79.42827	156.85922							-784.62476	203.82106	531.95618	
134	2.660	-107.56789	128.81236	1007.94177	-786.20013	210.66611	795.20270	-863.20349	-70.79584	701.71851	-908.70410	80.31876	1105.02405	-774.47339	-15.53022	798.48724	-855.03802	278.27368	856.25885	-883.61670	281.81250	726.70233	-340.01181	266.91934	903.61938	-850.99603	242.78049	558.14038	-869.31061	254.52626	478.94061	-518.17120	-72.61141	143.18654	-730.50214	70.03483	221.82076	-605.02930	21.06480	167.14154	-678.28156	52.24079	163.25288	-722.61804	157.47733	222.34291	-777.72778	226.34503	200.13155	-597.36615	221.58527	173.06540	-882.67102	296.21390	144.65089	-561.52826	256.92166	164.59145	-666.04749	298.88748	159.36755	-627.60968	306.15945	161.38246	-528.32141	303.79776	146.44060	-810.70612	140.58913	563.29572	-768.56732	11.26436	523.79694	-773.37372	-14.30261	201.46628	-798.59906	47.67963	172.80107	-800.53503	176.58662	180.45119	-850.65173	-46.66537	469.30344	-563.18823	-35.39405	163.75674	-663.30042	-67.67113	161.64406	-876.02838	-78.54763	141.55200	-852.00702	-84.94133	856.30237				-828.61481	-35.21739	556.47327	-677.88147	175.81921	162.05511	-622.20361	-79.51389	157.06413							-784.72357	203.55560	531.90131	
135	2.680	-108.60694	128.51897	1006.30499	-786.96533	210.40036	795.25763	-863.79443	-71.21012	701.77429	-909.32910	79.93427	1104.63428	-775.20673	-15.79583	797.97717	-855.10394	278.33408	856.42810	-884.56287	281.67505	726.45441	-340.21765	267.21423	902.00354	-851.20752	242.76237	557.85339	-869.53906	254.43477	478.95157	-518.32574	-72.41499	143.17876	-730.83276	70.33449	221.61369	-604.94537	21.09703	167.00858	-678.06128	52.41428	163.14946	-722.61804	157.47733	222.34291	-777.66937	226.39262	200.03253	-597.18610	221.36073	172.95454	-882.48035	296.19290	144.72406	-561.52826	256.92166	164.59145	-666.04749	298.88748	159.36755	-627.72327	305.95828	161.44876	-528.22870	303.90952	146.28857	-811.25726	140.46812	563.58685	-769.30719	11.28176	523.27625	-773.38245	-14.10192	201.13252	-798.62476	47.82828	172.92596	-800.50635	176.52391	180.47372	-851.23560	-46.37244	469.01651	-563.13452	-35.33155	163.65446	-663.28180	-67.53833	161.54504	-876.03320	-78.59757	141.50241	-852.49030	-85.19696	855.97870				-828.90619	-35.17631	556.33002	-678.01868	175.90889	161.91048	-622.20160	-79.41340	156.83177							-784.86871	203.70387	532.01801	
136	2.700	-109.44781	128.85484	1005.50098	-787.53986	209.87328	795.03870	-864.49847	-71.71626	701.67584	-909.87762	79.85918	1104.50818	-776.18512	-15.46490	797.65979	-855.72540	278.05576	856.41400	-884.95929	281.20566	726.16687	-341.31717	265.42197	900.37134	-851.83038	243.16466	558.23279	-870.00702	254.68611	478.97092	-518.36804	-72.57957	143.20578	-730.79095	70.01712	222.06459	-604.83447	21.01982	166.93394	-678.06128	52.41428	163.14946	-722.45313	157.56491	222.19991	-777.66937	226.39262	200.03253	-597.69598	221.25505	172.83179	-882.53766	296.18567	144.65939	-561.62109	256.89926	164.64935	-666.13104	299.05710	159.38080	-627.64484	306.06381	161.31584	-528.26044	303.79425	146.20554	-811.70612	140.16685	562.95605	-770.08411	10.89076	523.15759	-773.24951	-13.99217	201.24492	-798.62476	47.82828	172.92596	-800.32568	176.60704	180.42380	-851.96967	-46.32802	468.63422	-562.96539	-35.38488	163.76788	-663.36005	-67.39127	161.69804	-876.03320	-78.59757	141.50241	-853.15039	-85.60638	855.69696				-829.93286	-35.26564	555.68994	-677.88147	175.81921	162.05511	-622.26215	-79.42827	156.85922							-785.64459	203.26239	531.80505	
